<svg xmlns="http://www.w3.org/2000/svg" viewBox="-19285.918 -21636 312.965 61.832"><defs><style>.a{fill:#d20a28;}.b{fill:#720918;}.c{fill:#ffdc00;}</style></defs><g transform="translate(-19285.922 -21636)"><path d="M119.4,25.62c0-1.827-.657-6.06-6.572-6.06H105.58l.048,18.681h1.556V32.008h5.025a10.678,10.678,0,0,0,1.469-.068l4.649,6.282h1.933l-5-6.639C117.979,30.78,119.41,28.683,119.4,25.62Zm-12.264,4.929V21.087h5.615a5.112,5.112,0,0,1,3.866,1.382,4.6,4.6,0,0,1,1.111,3.2c0,4.03-3.073,4.88-5.654,4.89Z" transform="translate(-20.824 -9.934)"/><path d="M109.664,27.1l-.019-6.823L119,20.25V18.772l-9.365.019-.019-7.364,10.95-.019V9.89l-12.506.039.048,18.681,13.047-.029-.01-1.517Z" transform="translate(-3.627 -0.332)"/><path d="M120.083,4.514l-1.952-.164L113.56,8.979l1.749-.01Z" transform="translate(-3.812 -0.146)"/><path d="M153.377,29.15V30.61h7.306v4.03a10.94,10.94,0,0,1-6.533,2.068h0a8.079,8.079,0,0,1-8.205-7.876,7.644,7.644,0,0,1,2.4-5.567,8.369,8.369,0,0,1,5.8-2.329h0a9.191,9.191,0,0,1,6.3,2.232l.222.2,1.053-1.14-.222-.2a10.544,10.544,0,0,0-7.306-2.648h0a9.954,9.954,0,0,0-6.92,2.783,9.181,9.181,0,0,0-2.9,6.678,9.664,9.664,0,0,0,9.809,9.4h0a12.776,12.776,0,0,0,7.983-2.725l.116-.1V29.131Z" transform="translate(-22.126 -9.928)"/><rect width="1.556" height="18.681" transform="translate(146.241 9.487) rotate(-0.15)"/><path d="M186.769,19.29h0a9.954,9.954,0,0,0-6.929,2.783,9.191,9.191,0,0,0-2.9,6.678,9.664,9.664,0,0,0,9.809,9.4h0a9.664,9.664,0,0,0,9.809-9.481,9.2,9.2,0,0,0-2.9-6.659,9.906,9.906,0,0,0-6.891-2.725Zm0,1.537a8.06,8.06,0,0,1,8.205,7.847,8.05,8.05,0,0,1-8.186,7.9h0a8.07,8.07,0,0,1-8.234-7.847,7.732,7.732,0,0,1,2.4-5.576,8.35,8.35,0,0,1,5.8-2.339Z" transform="translate(-23.219 -9.925)"/><path d="M200.864,9.69H199.3l.039,15.695L186.522,9.719l-1.092.01.048,18.681,1.556-.01L187,12.705l12.757,15.56.087.106H200.9Z" transform="translate(-6.224 -0.325)"/><path d="M105.414,36.57l.048,18.594L90.28,36.608l-2.59.01.058,25.514,3.624-.01-.048-18.594,15.221,18.555h2.561l-.068-25.523Z" transform="translate(-2.943 -1.227)"/><path d="M147.158,46h0a13.53,13.53,0,0,0-9.423,3.788,12.564,12.564,0,0,0-3.866,9.123,13.143,13.143,0,0,0,13.366,12.834h0a13.53,13.53,0,0,0,9.413-3.788,12.563,12.563,0,0,0,3.866-9.123A13.124,13.124,0,0,0,147.158,46Zm0,22.122a9.887,9.887,0,0,1-6.852-2.716,8.968,8.968,0,0,1-2.9-6.514,9.51,9.51,0,0,1,9.664-9.307h0a9.5,9.5,0,0,1,9.664,9.258,9,9,0,0,1-2.793,6.533,9.838,9.838,0,0,1-6.862,2.745Z" transform="translate(-21.773 -10.822)"/><path d="M186.84,54.592a8.553,8.553,0,0,0-2.116-5.934A9.245,9.245,0,0,0,177.65,46H167.56l.068,25.514h3.624V63.55h5.615c.5,0,.966,0,1.488-.048l5.915,7.992h4.513l-6.659-8.9C185.168,61.26,186.85,58.467,186.84,54.592Zm-15.685,5.489V49.614h6.4a5.8,5.8,0,0,1,4.388,1.508,5.18,5.18,0,0,1,1.2,3.537,4.909,4.909,0,0,1-1.624,4.1,7.557,7.557,0,0,1-4.764,1.3Z" transform="translate(-22.904 -10.822)"/><path d="M197.821,36.33l-9.674,15.9-9.761-15.849-2.7.01.068,25.514,3.624-.01-.048-17.2,8.833,14.4,8.717-14.429.048,17.193,3.614-.01-.058-25.514Z" transform="translate(-5.898 -1.22)"/><path d="M235.023,45.89,223.58,71.432h3.962l2.9-6.7h11.6l3,6.678h3.924L237.516,45.88Zm-3.035,15.376,4.262-9.732,4.359,9.664Z" transform="translate(-24.785 -10.818)"/><path d="M253.994,36.19l.048,18.594L238.86,36.228h-2.6l.068,25.523,3.624-.01-.048-18.6L255.115,61.7l2.561-.01-.058-25.514Z" transform="translate(-7.931 -1.215)"/><path d="M291.931,45.74H283.61l.068,25.514h9.152a12.765,12.765,0,1,0-.86-25.516Zm-4.668,21.967V49.344h4.716a9.191,9.191,0,0,1,9.181,9.191,9.384,9.384,0,0,1-8.563,9.21Z" transform="translate(-26.8 -10.813)"/><rect width="3.624" height="25.514" transform="translate(283.85 34.863) rotate(-0.15)"/><path d="M323.192,57.967l-14.68.039-.019-7.094,11.964-.029-.01-3.527-11.964.029-.019-7.78,13.994-.039-.01-3.556-17.618.048.068,25.514,18.3-.048Z" transform="translate(-10.233 -1.209)"/><path class="a" d="M92.943,71.432l-72.2-7.219c-5.228-15.125-3.3-32.965,5.953-48.583L86.98,9.6C79.79,28.919,81.713,51.591,92.943,71.432Z" transform="translate(-17.88 -9.6)"/><path class="b" d="M71.428,28.379c2.4.145,4.552-.744,5.489-2.271a3.238,3.238,0,0,0,0-3.46,6.272,6.272,0,0,0-4.2-2.783,12.564,12.564,0,0,0-5.683.28c-.831.213-1.73.474-2.774.831a45.48,45.48,0,0,1-5.9,1.73,3.972,3.972,0,0,1-2.31-.222.57.57,0,0,1-.184-.367c0-.126.367-.367,1.45-.377,4.755,0,6.079-2.493,6.214-2.774a.323.323,0,0,0-.493-.387,5.8,5.8,0,0,1-3.083.754,1.633,1.633,0,0,1-.483-.406A2.184,2.184,0,0,0,57.831,18c-.135,0-.377,0-.4.077a.792.792,0,0,0,.184.474c.512.493.483.812.425.879s0,.445-.319-.058a1.73,1.73,0,0,0-2.1-.7c-.126,0-.155,0-.155.174a.619.619,0,0,0,.164.377,1.778,1.778,0,0,0-1.45.454c-.087.1,0,.3.068.406a.309.309,0,0,0,.145.126,2.039,2.039,0,0,0-.966,1.933c.319,1.8,2.184,2.658,5.112,2.339a23.358,23.358,0,0,0,5.238-1.334c1.092-.377,2.329-.812,3.759-1.227a8.234,8.234,0,0,1,6.156.358,2.9,2.9,0,0,1,1.479,1.73,1.546,1.546,0,0,1-.338,1.343,3.614,3.614,0,0,1-3.218,1.237,28.026,28.026,0,0,1-4.175-.483c-1.053-.184-2.368-.406-4.436-.648a26.48,26.48,0,0,0-4.61-.068H57.367a12.883,12.883,0,0,1-2.716-.087,6.218,6.218,0,0,1-3.151-1.16c-.077-.193.483-.4.966-.493a.309.309,0,0,0,0-.609c-.251-.048-.966-.28-.966-.677a5.325,5.325,0,0,0-.377-1.469h0a1.8,1.8,0,0,0,.1-1.392.966.966,0,0,0-.348-.551,1.788,1.788,0,0,0-1.488.377,5.016,5.016,0,0,0-1.73-.367h-.106a5.006,5.006,0,0,0-1.865.406,1.807,1.807,0,0,0-1.517-.406.966.966,0,0,0-.348.551,1.8,1.8,0,0,0,.116,1.382l.087.155a6.186,6.186,0,0,0-.145,1.4c0,.29-.773.57-1.1.648-.116,0-.28.058-.3.193a.425.425,0,0,0,.3.416c.561.126.966.406.966.5-.077.435-.879.783-1.14.879s-.242.126-.222.271a.445.445,0,0,0,.338.329c.338,0,.966.193,1.063.464a.966.966,0,0,1-.251.541,13.927,13.927,0,0,1-4.214-1.024c-.783-.387-2.068-1.082-2.31-1.256a13.124,13.124,0,0,1-2.087-2.078,2.841,2.841,0,0,0-.435-.725,1.653,1.653,0,0,0-1.189-.551l-.232-.319c-.319-.416-1.044-.512-2.232-.271l-.155-.126c-.677-.493-1.73.3-1.836.4s-.077.232,0,.358a.309.309,0,0,0,.329.184,1.537,1.537,0,0,1,.532,0,2.836,2.836,0,0,0,.319.464l-.445.222c-.106.077-.087.232,0,.358a.309.309,0,0,0,.3.213,1.933,1.933,0,0,1,.754.1l.387.406h0l.126.135c-.213.106-.435.193-.483.222a.364.364,0,0,0,0,.377.319.319,0,0,0,.3.213,1.933,1.933,0,0,1,.754.1l.213.358a2.435,2.435,0,0,0,.522.812,2.213,2.213,0,0,0,.966.5,2.31,2.31,0,0,1,.966.464l.184.155.329.271c.193.155.261.28.261.329s-.1.077-.2.164a.387.387,0,0,0,0,.425.309.309,0,0,0,.338.174c.773-.155,1.3,0,1.353.164s-.145.3-.483.532a.338.338,0,0,0-.058.435.309.309,0,0,0,.387.145c.879-.329,1.6-.242,1.7,0s-.155.406-.667.744a.338.338,0,0,0-.058.445.309.309,0,0,0,.406.126h0c.966-.435,1.72-.358,1.856-.106s-.242.667-.87,1.063c-.077,0,0,.126-.058.213a.309.309,0,0,0,.445.319h.058a2.339,2.339,0,0,1,1.933-.261,4.078,4.078,0,0,1,.338.232s.116-.077-.193.184c-4.3,3.7-5.364,4.832-6.765,5.3h-.184a3.353,3.353,0,0,0-.686-.126,1.044,1.044,0,0,0-.908.454h-.445c-.532,0-1.024.213-1.411,1.063a2.648,2.648,0,0,0-.174,1.073.309.309,0,0,0,.174.271,1.759,1.759,0,0,0,.725.077.309.309,0,0,0,.3-.28,1.228,1.228,0,0,1,.106-.348,1.6,1.6,0,0,0,0,.367.309.309,0,0,0,.29.261,5.556,5.556,0,0,0,.821,0,.309.309,0,0,0,.213-.126c.048-.077,0-.135,0-.242a2.349,2.349,0,0,1,.4-.966,5.8,5.8,0,0,0-.174,1.015.309.309,0,0,0,.28.329,11.935,11.935,0,0,0,2.977-.077c.754-.222.9-.464,1.082-.831l.106-.213a1.614,1.614,0,0,1,.561-.677h0a1.314,1.314,0,0,1,1.024-.445.338.338,0,0,1,.164.232.319.319,0,0,0,.3.222.309.309,0,0,0,.29-.232c.164-.657.522-1.063.754-1.034s.319.271.387.619a.309.309,0,0,0,.609,0c.058-.879.435-1.411.686-1.411h0c.184,0,.425.309.522.86A.309.309,0,0,0,44,37.039h0a2.078,2.078,0,0,1,.454-1.508.425.425,0,0,1,.29-.155c.271,0,.628.416.744,1.14a.312.312,0,0,0,.619-.077v-.077a2.2,2.2,0,0,1,.4-1.546.59.59,0,0,1,.406-.222c.319,0,.657.309.87.841a.309.309,0,0,0,.6-.106c0-.358.628-.812,1.527-.908l.348.01a3.411,3.411,0,0,0,1.508-.251,5.47,5.47,0,0,0,1.121-1.044A7.819,7.819,0,0,1,55.5,31.076a19.57,19.57,0,0,1,2.745-.841,1.343,1.343,0,0,0-.657.532,2.793,2.793,0,0,0,.4,3.286l.126.164c.638.831.667.966.5,1.121-.319.3-.686.59-.966.812s-.329.261-.416.338l-.271.271c-.2.213-.406.522-.532.532h-.164a3.179,3.179,0,0,0-.648-.116.966.966,0,0,0-.85.406h-.29a1.429,1.429,0,0,0-1.363.966,2.31,2.31,0,0,0-.184,1.015.309.309,0,0,0,.184.271,1.933,1.933,0,0,0,.725.077.309.309,0,0,0,.3-.232.309.309,0,0,0,.28.232,5.256,5.256,0,0,0,.773,0,.309.309,0,0,0,.222-.126.416.416,0,0,0,0-.242,2.039,2.039,0,0,1,.3-.763,5.4,5.4,0,0,0-.135.821.309.309,0,0,0,.28.338s.715.058,1.43.058a5.6,5.6,0,0,0,1.363-.126c.812-.232.966-.483,1.121-.966a.309.309,0,0,0,0-.068.966.966,0,0,1,.222-.5c.7-.85,1.469-1.169,1.788-.966l.145.087a.309.309,0,0,0,.435-.416c-.184-.319-.242-.6-.145-.705s.551-.145,1.121.087a.309.309,0,0,0,.232,0h0a.309.309,0,0,0,0-.561c-.638-.261-1.063-.667-.966-.966s.57-.522,1.237-.551a.309.309,0,0,0,.068-.609l-.329-.1h0a2.753,2.753,0,0,1-1.624-.773c-.029-.155.4-.474,1.314-.7a5.508,5.508,0,0,1,1.15.58,11.114,11.114,0,0,0,2.513,1.14,37.392,37.392,0,0,0,4.581.541h0a1.933,1.933,0,0,1,.744,2.174c-.135.271-.4.783-.628.8h-.193a3.789,3.789,0,0,0-.715-.116,1.121,1.121,0,0,0-.966.425h-.319a1.522,1.522,0,0,0-1.43.966,2.387,2.387,0,0,0-.184,1.053.309.309,0,0,0,.184.271,1.991,1.991,0,0,0,.744.077.29.29,0,0,1,.57,0,6.485,6.485,0,0,0,.86,0,.309.309,0,0,0,.222-.126.483.483,0,0,0,0-.251,2.368,2.368,0,0,1,.464-.966,5.15,5.15,0,0,0-.2,1.024.309.309,0,0,0,.29.338c.058,0,.879.058,1.72.058a6.823,6.823,0,0,0,1.527-.126c.677-.184,1.14-.9,1.372-2.107a3.575,3.575,0,0,0,.058-.532h0c0-.474-.068-1.063-.068-1.885,0-1.053.406-1.72.783-1.74h.087a.309.309,0,0,0,.048-.609c-.754-.174-1.053-.464-1.044-.58s.164-.251.57-.377h.116a.309.309,0,0,0-.193-.58c-.648.116-1.2,0-1.334-.261s0-.483.28-.792l.048-.077h0a.309.309,0,0,0-.058-.358.435.435,0,0,0-.406-.077,6.214,6.214,0,0,1-2.165.792H72a6.929,6.929,0,0,1-1.546-.28,3.982,3.982,0,0,1-2.03-1.527,6.793,6.793,0,0,0-.551-.609l-.251-.232.483.048A25.811,25.811,0,0,1,71.428,28.379ZM47.586,24.707a2.165,2.165,0,0,0,1.16.164,2.26,2.26,0,0,1-.135.309c-.058.116-.116.232-.164.348-.213.483-.358.744-.841.744h0c-.474,0-.619-.28-.841-.763-.048-.106-.106-.222-.155-.319a2.223,2.223,0,0,1-.135-.309,2.223,2.223,0,0,0,1.121-.164Z" transform="translate(-18.245 -9.882)"/><path class="c" d="M74.929,32.241c0-.271.319-.5.773-.657h.077c-.783.145-1.45,0-1.662-.416a1.044,1.044,0,0,1,.3-1.189h0a7.267,7.267,0,0,1-2.348.725h-.3a7.886,7.886,0,0,1-1.633-.213c-1.411-.377-2.01-1.517-2.716-2.213a2.542,2.542,0,0,0-1.121-.763s-.058-.1.8,0,1.537.193,4.04.348c4.03.242,6.765-2.464,5.151-5.267s-5.9-3.431-9.529-2.5c-2.174.551-4.929,1.807-8.746,2.6a4.291,4.291,0,0,1-2.513-.242c-.358-.174-.9-1.2,1.44-1.218,4.552,0,5.8-2.31,5.944-2.6a7.084,7.084,0,0,1-3.3.773.532.532,0,0,1-.2-.048C58.761,19,58.7,18.3,57.456,18.15c.705.677.677,1.3.358,1.4a.464.464,0,0,1-.541-.135,1.633,1.633,0,0,0-1.817-.619s.841.271.657.667c0,.058-.145.068-.242.077a.618.618,0,0,1-.242,0,1.14,1.14,0,0,0-1.459.251s.6-.116.725.135c-.918.445-1.614,1.14-1.45,2.049.329,1.875,2.474,2.329,4.774,2.087,2.725-.29,5.054-1.488,8.93-2.609s7.432.087,8.021,2.31c.309,1.16-.715,2.9-3.866,2.774s-3.943-.59-8.63-1.14a34.25,34.25,0,0,0-5.6,0,13.085,13.085,0,0,1-2.774-.1c-.966-.145-3.392-.609-3.421-1.266s1.247-.8,1.247-.8-1.189-.242-1.256-.966a5.673,5.673,0,0,0-.348-1.556l.087-.135a1.421,1.421,0,0,0-.1-1.517,1.614,1.614,0,0,0-1.285.464,4.736,4.736,0,0,0-1.875-.551h0a4.706,4.706,0,0,0-1.933.474,1.614,1.614,0,0,0-1.382-.474,1.421,1.421,0,0,0-.1,1.517,1.932,1.932,0,0,0,.164.261,4.832,4.832,0,0,0-.309,1.469c-.048.638-1.218.966-1.227.966s1.324.309,1.218.86c-.116.725-1.266,1.082-1.266,1.082s1.2.106,1.334.705c.058.261-.174.493-.474.831A13.752,13.752,0,0,1,38.9,25.621a27.117,27.117,0,0,1-2.4-1.3,13.4,13.4,0,0,1-2.078-2.078,2.7,2.7,0,0,0-.387-.667,1.382,1.382,0,0,0-1.179-.454c-.116-.174-.261-.367-.309-.445-.309-.416-1.343-.28-2.1-.126a1.237,1.237,0,0,0-.222-.213c-.493-.367-1.392.377-1.392.377s.667-.087.8.116l.58-.213a.667.667,0,0,0-.319.59l.126.184a4.378,4.378,0,0,1,2.155-.155,4.755,4.755,0,0,0-1.024.474l-.077-.058c-.59-.377-1.556.329-1.556.329a2.194,2.194,0,0,1,.966.164l.077.068.464-.377a1.111,1.111,0,0,0-.164.7l.068.087.155.164s2.232-.648,2.841,0a2.629,2.629,0,0,0-1.72.416h0c-.59-.377-1.556.329-1.556.329a2.194,2.194,0,0,1,.966.164l.087.077.367-.329a1.169,1.169,0,0,0-.145.744,2.184,2.184,0,0,0,.454.715c.522.5,1.266.348,1.933.966l.493.416a.879.879,0,0,1,.377.551.59.59,0,0,1-.261.483c.841-.164,1.566,0,1.7.367s-.126.628-.561.966c.966-.367,1.933-.309,2.1.126s-.155.792-.734,1.16h0c.966-.464,2-.454,2.261,0s-.174,1.015-.9,1.479h.058a2.629,2.629,0,0,1,2.2-.261,10.447,10.447,0,0,0,2.213-1.769,8.389,8.389,0,0,1-1.991,2.677c-.28.271-2.107,1.759-2.426,2.059-1.556,1.208-3.17,2.551-3.286,2.6-.377.164-.889.541-1.237.532a4.59,4.59,0,0,0-.86-.174.86.86,0,0,0-.744.474c-.2,0-.512-.058-.609-.058-.445,0-.85.483-1.121,1.082a2.416,2.416,0,0,0-.145.966,1.585,1.585,0,0,0,.58.048,3.392,3.392,0,0,1,1.179-1.817,4.069,4.069,0,0,0-.454,1.827,5.344,5.344,0,0,0,.763,0c0-.532.7-2,1.45-1.933h.164c-.657.222-.792,1.933-.792,1.933a11.906,11.906,0,0,0,2.9-.058c.812-.242.744-.445.966-.9a1.933,1.933,0,0,1,.561-.667,1.546,1.546,0,0,1,1.334-.5.619.619,0,0,1,.358.435c.2-.773.648-1.324,1.092-1.266s.561.377.657.87c.058-.966.5-1.72,1.015-1.7s.7.474.821,1.111h0c0-1.024.416-1.865.966-1.885s.966.59,1.053,1.4v-.077c-.077-1.121.406-2.059,1.092-2.1a1.348,1.348,0,0,1,1.169,1.034c0-.57.8-1.1,1.807-1.208H49.9a3.518,3.518,0,0,0,1.353-.2c1.121-.725,1.382-1.933,3.759-3.122a19.329,19.329,0,0,1,3.122-.966,8.823,8.823,0,0,1,3-.4H61.2a2.339,2.339,0,0,1,.715.377h0a8.93,8.93,0,0,1,1.537,1.846c.213.377.068.184.812.7a10.718,10.718,0,0,0,2.435,1.1,36.58,36.58,0,0,0,4.542.628h.077a2.213,2.213,0,0,1,.879,2.59c-.184.358-.464.783-.889.773a5.237,5.237,0,0,0-.9-.164.908.908,0,0,0-.773.445l-.474-.058c-.464,0-.889.464-1.189,1.034a2.136,2.136,0,0,0-.155.9,1.817,1.817,0,0,0,.619.048,2.948,2.948,0,0,1,1.15-1.827,3.634,3.634,0,0,0-.464,1.7,6.129,6.129,0,0,0,.8,0c0-.454.734-1.933,1.537-1.865h.174c-.686.213-.841,1.865-.841,1.865a15.462,15.462,0,0,0,3.151-.048c.8-.222,1.073-1.45,1.15-1.865a3.3,3.3,0,0,0,.058-.483c-.048-.522-.068-1.169-.068-1.933,0-1.121.445-2.02,1.073-2.049h.087C75.441,32.965,74.91,32.608,74.929,32.241ZM48.729,21.61a3.527,3.527,0,0,1,1.218.116.87.87,0,0,1-.29.377,1.121,1.121,0,0,1-.821.348.744.744,0,0,1-.879-.619A1.754,1.754,0,0,1,48.729,21.61Zm-1.372,1.6c.232,0,.831-.077.831-.077a.088.088,0,0,1,.068.126l-.821.454h-.077l-.86-.454a.088.088,0,0,1,.068-.126S47.106,23.214,47.357,23.214ZM45.008,22.1a.87.87,0,0,1-.29-.377,3.527,3.527,0,0,1,1.218-.116c.551.048.773.184.773.222a.744.744,0,0,1-.879.619,1.121,1.121,0,0,1-.841-.348Zm2.348,4.223h0c-.85,0-.966-.734-1.266-1.247s-.367-1.024-.251-.966a1.662,1.662,0,0,0,1.546,0,1.653,1.653,0,0,0,1.546,0c.116-.077,0,.57-.251.966C48.323,25.6,48.227,26.336,47.357,26.326Zm3.489,1.343c-.271.309.058,1.024.435,1.595-1.15-.106-2.377.261-2.474.966a.752.752,0,0,0,0,.106.966.966,0,0,1-.2-.5c.058-.58.889-1.024,1.933-.966a1.469,1.469,0,0,1-.164-1.43,1.053,1.053,0,0,1,1.285-.474,1.43,1.43,0,0,1-.783-1.392c.048-.29.609-.358.667-.367a.522.522,0,0,0-.2.3c-.1.454.474,1.247,1.285,1.846C51.677,27.186,51.136,27.3,50.846,27.669Z" transform="translate(-18.248 -9.887)"/><path class="c" d="M64.421,34.1l-.338-.1c-.966-.2-1.865-.667-1.865-1.073s.686-.783,1.556-.966c-.106-.174-.1-.174-.222-.358A3.576,3.576,0,0,0,61.84,30a2.745,2.745,0,0,0-.87.048c-1.1.242-2.29.454-2.561.966a2.493,2.493,0,0,0,.377,2.948c.7.9.966,1.247.609,1.691a11.846,11.846,0,0,1-1.411,1.169c-.377.348-.6.705-.966.705a4.339,4.339,0,0,0-.8-.164.8.8,0,0,0-.686.435l-.454-.068c-.454,0-.86.445-1.14.966a2.059,2.059,0,0,0-.145.86,1.759,1.759,0,0,0,.6.048,2.9,2.9,0,0,1,.966-1.633,3.75,3.75,0,0,0-.4,1.691,5.024,5.024,0,0,0,.715,0c0-.4.657-1.856,1.363-1.8h.155c-.619.213-.744,1.8-.744,1.8a11.259,11.259,0,0,0,2.706,0c.715-.2.792-.377.918-.754a1.237,1.237,0,0,1,.29-.667c.734-.9,1.672-1.363,2.194-1.034l.145.087c-.261-.445-.309-.841-.1-1.073a1.515,1.515,0,0,1,1.469,0h0c-.792-.319-1.285-.841-1.179-1.324S63.657,34.136,64.421,34.1Z" transform="translate(-19.085 -10.284)"/><path class="b" d="M71.428,52.37c2.4.145,4.552-.744,5.489-2.271a3.238,3.238,0,0,0,0-3.46,6.272,6.272,0,0,0-4.2-2.783,12.564,12.564,0,0,0-5.683.28c-.831.213-1.73.474-2.774.831a45.478,45.478,0,0,1-5.9,1.73,3.972,3.972,0,0,1-2.31-.222.57.57,0,0,1-.184-.367c0-.126.367-.367,1.45-.377,4.755,0,6.079-2.493,6.214-2.774a.323.323,0,0,0-.493-.387,5.8,5.8,0,0,1-3.083.754,1.633,1.633,0,0,1-.483-.406A2.184,2.184,0,0,0,57.831,42c-.135,0-.377,0-.4.077a.792.792,0,0,0,.184.474c.512.493.483.812.425.879s0,.445-.319-.058a1.73,1.73,0,0,0-2.1-.7c-.126,0-.155,0-.155.174a.619.619,0,0,0,.164.377,1.778,1.778,0,0,0-1.45.454c-.087.1,0,.3.068.406a.309.309,0,0,0,.145.126,2.039,2.039,0,0,0-.966,1.933c.319,1.8,2.184,2.658,5.112,2.339a23.358,23.358,0,0,0,5.238-1.343c1.092-.377,2.329-.812,3.759-1.227a8.234,8.234,0,0,1,6.156.358A2.9,2.9,0,0,1,75.178,48a1.546,1.546,0,0,1-.338,1.343,3.614,3.614,0,0,1-3.218,1.237,28.026,28.026,0,0,1-4.175-.483c-1.053-.184-2.368-.406-4.436-.648a26.481,26.481,0,0,0-4.61-.068H57.367a12.882,12.882,0,0,1-2.716-.087,6.218,6.218,0,0,1-3.151-1.16c-.077-.193.483-.4.966-.493a.309.309,0,0,0,0-.609c-.251-.048-.966-.28-.966-.676a5.325,5.325,0,0,0-.377-1.459h0a1.8,1.8,0,0,0,.1-1.4.966.966,0,0,0-.348-.551,1.788,1.788,0,0,0-1.488.377,5.016,5.016,0,0,0-1.73-.358h-.106a5.006,5.006,0,0,0-1.865.406,1.807,1.807,0,0,0-1.517-.406.966.966,0,0,0-.348.551,1.8,1.8,0,0,0,.116,1.382l.087.155a6.186,6.186,0,0,0-.145,1.4c0,.29-.773.57-1.1.648-.116,0-.28.058-.3.193a.425.425,0,0,0,.3.416c.561.126.966.406.966.5-.077.435-.879.783-1.14.879s-.242.126-.222.271a.445.445,0,0,0,.338.329c.338,0,.966.193,1.063.464a.966.966,0,0,1-.251.541,13.926,13.926,0,0,1-4.214-1.024c-.783-.387-2.068-1.082-2.31-1.256a13.124,13.124,0,0,1-2.087-2.078,2.841,2.841,0,0,0-.435-.725,1.653,1.653,0,0,0-1.189-.551l-.232-.319c-.319-.416-1.044-.512-2.232-.271l-.155-.126c-.677-.493-1.73.3-1.836.4s-.077.232,0,.358a.309.309,0,0,0,.329.184,1.537,1.537,0,0,1,.532,0,2.835,2.835,0,0,0,.319.464l-.445.222c-.106.077-.087.232,0,.358a.309.309,0,0,0,.3.213,1.933,1.933,0,0,1,.754.1l.387.406h0l.126.135c-.213.106-.435.193-.483.222a.364.364,0,0,0,0,.377.319.319,0,0,0,.3.213,1.933,1.933,0,0,1,.754.1l.213.358a2.435,2.435,0,0,0,.522.812,2.213,2.213,0,0,0,.966.5,2.31,2.31,0,0,1,.966.464l.184.155.329.271c.193.155.261.28.261.329s-.1.077-.2.164a.387.387,0,0,0,0,.425.309.309,0,0,0,.338.174c.773-.155,1.3,0,1.353.164s-.145.3-.483.532a.338.338,0,0,0-.058.435.309.309,0,0,0,.387.145c.879-.329,1.6-.242,1.7,0s-.155.406-.667.744a.338.338,0,0,0-.058.445.309.309,0,0,0,.406.126h0c.966-.435,1.72-.358,1.856-.106s-.242.667-.87,1.063c-.077,0,0,.126-.058.213a.309.309,0,0,0,.445.319h.058a2.339,2.339,0,0,1,1.933-.261,4.079,4.079,0,0,1,.338.232s.116-.077-.193.184c-4.3,3.7-5.364,4.832-6.765,5.3h-.184a3.352,3.352,0,0,0-.686-.126,1.044,1.044,0,0,0-.908.454h-.445c-.532,0-1.024.213-1.411,1.063a2.648,2.648,0,0,0-.174,1.073.309.309,0,0,0,.174.271,1.759,1.759,0,0,0,.725.077.309.309,0,0,0,.3-.28,1.227,1.227,0,0,1,.106-.348,1.594,1.594,0,0,0,0,.367.309.309,0,0,0,.29.261,5.558,5.558,0,0,0,.821,0,.309.309,0,0,0,.213-.126c.048-.077,0-.135,0-.242a2.349,2.349,0,0,1,.4-.966,5.8,5.8,0,0,0-.174,1.015.309.309,0,0,0,.28.329,11.936,11.936,0,0,0,2.977-.077c.754-.222.9-.464,1.082-.831l.106-.213a1.614,1.614,0,0,1,.561-.676h0a1.314,1.314,0,0,1,1.024-.445.338.338,0,0,1,.164.232.319.319,0,0,0,.3.222.309.309,0,0,0,.29-.232c.164-.657.522-1.063.754-1.034s.319.271.387.619a.309.309,0,0,0,.609,0c.058-.879.435-1.411.686-1.411h0c.184,0,.425.309.522.86A.309.309,0,0,0,44,61.039h0a2.078,2.078,0,0,1,.454-1.527.425.425,0,0,1,.29-.155c.271,0,.628.416.744,1.14a.312.312,0,0,0,.619-.077v-.058a2.2,2.2,0,0,1,.4-1.546.589.589,0,0,1,.406-.222c.319,0,.657.309.87.841a.309.309,0,0,0,.6-.106c0-.358.628-.812,1.527-.908l.348.01a3.411,3.411,0,0,0,1.508-.251,5.47,5.47,0,0,0,1.121-1.044,7.819,7.819,0,0,1,2.59-2.087,19.572,19.572,0,0,1,2.745-.841,1.343,1.343,0,0,0-.657.532,2.793,2.793,0,0,0,.4,3.286l.126.164c.638.831.667.966.5,1.121-.319.3-.686.59-.966.812s-.329.261-.416.338l-.271.271c-.2.213-.406.522-.532.532h-.164a3.178,3.178,0,0,0-.647-.116.966.966,0,0,0-.85.406h-.29a1.429,1.429,0,0,0-1.363.966,2.31,2.31,0,0,0-.184,1.015.309.309,0,0,0,.184.271,1.933,1.933,0,0,0,.725.077.309.309,0,0,0,.3-.232.309.309,0,0,0,.28.232,5.26,5.26,0,0,0,.773,0,.309.309,0,0,0,.222-.126.416.416,0,0,0,0-.242,2.039,2.039,0,0,1,.3-.763,5.4,5.4,0,0,0-.135.821.309.309,0,0,0,.28.338s.715.058,1.43.058a5.6,5.6,0,0,0,1.363-.126c.812-.232.966-.483,1.121-.966a.31.31,0,0,0,0-.068.966.966,0,0,1,.222-.5c.7-.85,1.469-1.169,1.788-.966l.145.087a.309.309,0,0,0,.435-.416c-.184-.319-.242-.6-.145-.705s.551-.145,1.121.087a.309.309,0,0,0,.232,0h0a.309.309,0,0,0,0-.561c-.638-.261-1.063-.667-.966-.966s.57-.522,1.237-.551a.309.309,0,0,0,.068-.609l-.329-.1h0a2.753,2.753,0,0,1-1.624-.773c-.029-.155.4-.474,1.314-.7a5.508,5.508,0,0,1,1.15.58,11.114,11.114,0,0,0,2.513,1.14,37.392,37.392,0,0,0,4.61.57h0a1.933,1.933,0,0,1,.744,2.174c-.135.271-.4.783-.628.8h-.193a3.787,3.787,0,0,0-.715-.116,1.121,1.121,0,0,0-.966.425h-.319a1.522,1.522,0,0,0-1.43.966,2.387,2.387,0,0,0-.184,1.053.309.309,0,0,0,.184.271,1.991,1.991,0,0,0,.744.077.29.29,0,0,1,.57,0,6.485,6.485,0,0,0,.86,0,.309.309,0,0,0,.222-.126.483.483,0,0,0,0-.251,2.368,2.368,0,0,1,.464-.966,5.15,5.15,0,0,0-.2,1.024.309.309,0,0,0,.29.338c.058,0,.879.058,1.72.058a6.822,6.822,0,0,0,1.527-.126c.677-.184,1.14-.9,1.372-2.107a3.575,3.575,0,0,0,.058-.532h0c0-.474-.068-1.063-.068-1.885,0-1.053.406-1.72.783-1.74h.087a.309.309,0,0,0,.048-.609c-.754-.174-1.053-.464-1.044-.58s.164-.251.57-.377h.116a.309.309,0,0,0-.193-.58c-.648.116-1.2,0-1.334-.261s0-.483.28-.792l.048-.077h0a.309.309,0,0,0-.058-.358.435.435,0,0,0-.406-.077,6.214,6.214,0,0,1-2.165.792H72a6.929,6.929,0,0,1-1.546-.28,3.982,3.982,0,0,1-2.03-1.527,6.8,6.8,0,0,0-.551-.609l-.251-.232.483.048A22.172,22.172,0,0,1,71.428,52.37ZM47.586,48.7a2.165,2.165,0,0,0,1.16.164,2.261,2.261,0,0,1-.135.309c-.058.116-.116.232-.164.348-.213.483-.358.744-.841.744h0c-.474,0-.619-.28-.841-.763-.048-.106-.106-.222-.155-.319a2.224,2.224,0,0,1-.222-.319A2.223,2.223,0,0,0,47.6,48.7Z" transform="translate(-18.245 -10.688)"/><path class="c" d="M74.929,56.221c0-.271.319-.5.773-.657h.077c-.783.145-1.45,0-1.662-.416a1.044,1.044,0,0,1,.3-1.189h0a7.267,7.267,0,0,1-2.348.725h-.3a7.887,7.887,0,0,1-1.633-.213c-1.411-.377-2.01-1.517-2.716-2.213a2.542,2.542,0,0,0-1.121-.763s-.058-.1.8,0,1.537.193,4.04.348c4.03.242,6.765-2.464,5.151-5.267s-5.9-3.431-9.529-2.5c-2.174.551-4.929,1.807-8.746,2.6a4.291,4.291,0,0,1-2.513-.242c-.358-.174-.9-1.2,1.44-1.218,4.552,0,5.8-2.31,5.944-2.6a7.084,7.084,0,0,1-3.3.773.531.531,0,0,1-.2-.048c-.628-.358-.686-1.053-1.933-1.208.705.677.677,1.3.358,1.4a.464.464,0,0,1-.541-.135,1.633,1.633,0,0,0-1.817-.619s.841.271.657.667c0,.058-.145.068-.242.077a.619.619,0,0,1-.242,0,1.14,1.14,0,0,0-1.459.251s.6-.116.725.135c-.918.445-1.614,1.14-1.45,2.049.329,1.875,2.474,2.329,4.774,2.087,2.725-.29,5.054-1.488,8.93-2.609s7.432.087,8.021,2.31c.309,1.16-.715,2.9-3.866,2.774s-3.943-.59-8.63-1.14a34.248,34.248,0,0,0-5.6,0,13.085,13.085,0,0,1-2.774-.1c-.966-.145-3.392-.609-3.421-1.266s1.247-.8,1.247-.8-1.189-.242-1.256-.966a5.673,5.673,0,0,0-.348-1.556l.087-.135a1.421,1.421,0,0,0-.1-1.517,1.614,1.614,0,0,0-1.285.464,4.735,4.735,0,0,0-1.875-.532h0a4.706,4.706,0,0,0-1.933.474,1.614,1.614,0,0,0-1.382-.474,1.421,1.421,0,0,0-.1,1.517,1.932,1.932,0,0,0,.164.261,4.832,4.832,0,0,0-.309,1.469c-.048.638-1.218.966-1.227.966s1.324.309,1.218.86c-.126.705-1.3,1.111-1.3,1.111s1.2.106,1.334.705c.058.261-.174.493-.474.831a13.752,13.752,0,0,1-4.484-1.044,27.116,27.116,0,0,1-2.4-1.3A13.4,13.4,0,0,1,34.4,46.266a2.7,2.7,0,0,0-.387-.667,1.382,1.382,0,0,0-1.15-.493c-.116-.174-.261-.367-.309-.445-.309-.416-1.343-.28-2.1-.126a1.237,1.237,0,0,0-.222-.213c-.493-.367-1.392.377-1.392.377s.667-.087.8.116l.58-.213a.667.667,0,0,0-.319.59l.126.184a4.378,4.378,0,0,1,2.155-.155,4.755,4.755,0,0,0-1.024.474l-.077-.058c-.59-.377-1.556.329-1.556.329a2.194,2.194,0,0,1,.966.164l.077.068.464-.377a1.111,1.111,0,0,0-.164.7l.068.087.155.164s2.232-.648,2.841,0a2.629,2.629,0,0,0-1.72.416h0c-.59-.377-1.556.329-1.556.329a2.194,2.194,0,0,1,.966.164l.087.077.367-.329a1.169,1.169,0,0,0-.145.744,2.184,2.184,0,0,0,.454.715c.522.5,1.266.348,1.933.966l.493.416a.879.879,0,0,1,.377.551.59.59,0,0,1-.261.483c.841-.164,1.566,0,1.7.367s-.126.628-.561.966c.966-.367,1.933-.309,2.1.126s-.155.792-.734,1.16h0c.966-.464,2-.454,2.261,0s-.174,1.015-.9,1.479h.058a2.629,2.629,0,0,1,2.2-.261,10.447,10.447,0,0,0,2.213-1.769,8.389,8.389,0,0,1-1.991,2.677c-.28.271-2.107,1.759-2.426,2.059-1.556,1.208-3.17,2.551-3.286,2.6-.377.164-.889.541-1.237.532a4.59,4.59,0,0,0-.86-.174.86.86,0,0,0-.744.474c-.2,0-.512-.058-.609-.058-.445,0-.85.483-1.121,1.082a2.416,2.416,0,0,0-.145.966,1.585,1.585,0,0,0,.58.048,3.392,3.392,0,0,1,1.179-1.817,4.069,4.069,0,0,0-.454,1.827,5.346,5.346,0,0,0,.763,0c0-.532.7-2,1.45-1.933h.164c-.657.222-.792,1.933-.792,1.933a11.907,11.907,0,0,0,2.9-.058c.812-.242.744-.445.966-.9a1.933,1.933,0,0,1,.561-.667,1.546,1.546,0,0,1,1.334-.5.619.619,0,0,1,.358.435c.2-.773.648-1.324,1.092-1.266s.561.377.657.87c.058-.966.5-1.72,1.015-1.7s.7.474.821,1.111h0c0-1.024.416-1.865.966-1.885s.966.59,1.053,1.4v-.077c-.077-1.121.406-2.059,1.092-2.1a1.348,1.348,0,0,1,1.169,1.034c0-.57.8-1.1,1.807-1.208H49.9a3.518,3.518,0,0,0,1.353-.2c1.121-.725,1.382-1.933,3.759-3.122a19.33,19.33,0,0,1,3.122-.966,8.824,8.824,0,0,1,3-.4H61.2a2.339,2.339,0,0,1,.715.377h0a8.929,8.929,0,0,1,1.537,1.846c.213.377.068.184.812.7a10.719,10.719,0,0,0,2.435,1.1,36.578,36.578,0,0,0,4.542.628h.077a2.213,2.213,0,0,1,.879,2.59c-.184.358-.464.783-.889.773a5.236,5.236,0,0,0-.9-.164.908.908,0,0,0-.773.445l-.474-.058c-.464,0-.889.464-1.189,1.034a2.136,2.136,0,0,0-.155.9,1.817,1.817,0,0,0,.619.048,2.948,2.948,0,0,1,1.15-1.827,3.634,3.634,0,0,0-.464,1.7,6.131,6.131,0,0,0,.8,0c0-.454.734-1.933,1.537-1.865h.174c-.686.213-.841,1.865-.841,1.865a15.463,15.463,0,0,0,3.151-.048c.8-.222,1.073-1.45,1.15-1.865a3.3,3.3,0,0,0,.058-.483c-.048-.522-.068-1.169-.068-1.933,0-1.121.445-2.02,1.073-2.049h.087C75.441,56.945,74.91,56.6,74.929,56.221ZM48.729,45.59a3.528,3.528,0,0,1,1.218.116.87.87,0,0,1-.29.377,1.121,1.121,0,0,1-.821.348.744.744,0,0,1-.879-.619,1.689,1.689,0,0,1,.773-.213ZM47.357,47.2c.232,0,.831-.077.831-.077a.088.088,0,0,1,.068.126l-.9.454h0l-.86-.454a.088.088,0,0,1,.068-.126S47.106,47.2,47.357,47.2Zm-2.348-1.111a.87.87,0,0,1-.29-.377,3.528,3.528,0,0,1,1.218-.116c.551.048.773.184.773.222a.744.744,0,0,1-.879.619,1.121,1.121,0,0,1-.841-.348Zm2.348,4.223h0c-.85,0-.966-.734-1.266-1.247s-.367-1.024-.251-.966a1.662,1.662,0,0,0,1.546,0,1.653,1.653,0,0,0,1.546,0c.116-.077,0,.57-.251.966C48.323,49.581,48.227,50.325,47.357,50.316Zm3.5,1.3c-.271.309.058,1.024.435,1.595-1.15-.106-2.377.261-2.474.966a.751.751,0,0,0,0,.106.966.966,0,0,1-.2-.5c.058-.58.889-1.024,1.933-.966a1.469,1.469,0,0,1-.164-1.43,1.053,1.053,0,0,1,1.285-.474,1.43,1.43,0,0,1-.783-1.392c.048-.29.609-.358.667-.367a.522.522,0,0,0-.2.3c-.1.454.474,1.247,1.285,1.846-.957-.126-1.5-.01-1.788.319Z" transform="translate(-18.248 -10.692)"/><path class="c" d="M64.421,58.087l-.338-.1c-.966-.2-1.865-.667-1.865-1.073s.686-.783,1.556-.966c-.106-.174-.1-.174-.222-.358A3.576,3.576,0,0,0,61.84,54a2.745,2.745,0,0,0-.87.048c-1.1.242-2.29.454-2.561.966a2.493,2.493,0,0,0,.377,2.948c.7.9.966,1.247.609,1.691a11.846,11.846,0,0,1-1.411,1.169c-.377.348-.6.705-.966.705a4.338,4.338,0,0,0-.8-.164.8.8,0,0,0-.686.435l-.454-.068c-.454,0-.86.445-1.14.966a2.059,2.059,0,0,0-.145.86,1.759,1.759,0,0,0,.6.048,2.9,2.9,0,0,1,.966-1.633,3.75,3.75,0,0,0-.4,1.691,5.026,5.026,0,0,0,.715,0c0-.4.657-1.856,1.363-1.8h.155c-.619.213-.744,1.8-.744,1.8a11.259,11.259,0,0,0,2.706,0c.715-.2.792-.377.918-.754a1.237,1.237,0,0,1,.29-.667c.734-.9,1.672-1.363,2.194-1.034l.145.087c-.261-.445-.309-.841-.1-1.073a1.515,1.515,0,0,1,1.469,0h0c-.792-.319-1.285-.841-1.179-1.324S63.657,58.126,64.421,58.087Z" transform="translate(-19.085 -11.09)"/></g></svg>